<svg width="38" height="38" viewBox="0 0 38 38" fill="none" xmlns="http://www.w3.org/2000/svg">
<path d="M31.5462 16.4394C31.6661 16.15 31.6974 15.8315 31.6362 15.5243C31.5751 15.2171 31.4242 14.935 31.2026 14.7135L23.2859 6.79688L21.0471 9.03571L26.261 14.2496H6.33319V17.4163H30.0832C30.3963 17.4164 30.7024 17.3236 30.9629 17.1497C31.2233 16.9758 31.4263 16.7286 31.5462 16.4394ZM6.45352 21.5599C6.33366 21.8493 6.30232 22.1677 6.36348 22.4749C6.42464 22.7821 6.57555 23.0643 6.79711 23.2857L14.7138 31.2024L16.9526 28.9635L11.7387 23.7496H31.6665V20.583H7.91652C7.60335 20.5827 7.29713 20.6754 7.03669 20.8493C6.77624 21.0232 6.57328 21.2705 6.45352 21.5599Z" fill="white"/>
</svg>
