<svg width="38" height="38" viewBox="0 0 38 38" fill="none" xmlns="http://www.w3.org/2000/svg">
<path d="M2.375 11.2812C2.375 9.864 2.938 8.5048 3.94015 7.50265C4.9423 6.5005 6.3015 5.9375 7.71875 5.9375H30.2812C31.6985 5.9375 33.0577 6.5005 34.0599 7.50265C35.062 8.5048 35.625 9.864 35.625 11.2812V26.7188C35.625 28.136 35.062 29.4952 34.0599 30.4974C33.0577 31.4995 31.6985 32.0625 30.2812 32.0625H7.71875C6.3015 32.0625 4.9423 31.4995 3.94015 30.4974C2.938 29.4952 2.375 28.136 2.375 26.7188V11.2812ZM7.71875 8.3125C6.93139 8.3125 6.17628 8.62528 5.61953 9.18203C5.06278 9.73878 4.75 10.4939 4.75 11.2812V13.0625H33.25V11.2812C33.25 10.4939 32.9372 9.73878 32.3805 9.18203C31.8237 8.62528 31.0686 8.3125 30.2812 8.3125H7.71875ZM4.75 26.7188C4.75 27.5061 5.06278 28.2612 5.61953 28.818C6.17628 29.3747 6.93139 29.6875 7.71875 29.6875H30.2812C31.0686 29.6875 31.8237 29.3747 32.3805 28.818C32.9372 28.2612 33.25 27.5061 33.25 26.7188V15.4375H4.75V26.7188ZM24.9375 22.5625H28.5C28.8149 22.5625 29.117 22.6876 29.3397 22.9103C29.5624 23.133 29.6875 23.4351 29.6875 23.75C29.6875 24.0649 29.5624 24.367 29.3397 24.5897C29.117 24.8124 28.8149 24.9375 28.5 24.9375H24.9375C24.6226 24.9375 24.3205 24.8124 24.0978 24.5897C23.8751 24.367 23.75 24.0649 23.75 23.75C23.75 23.4351 23.8751 23.133 24.0978 22.9103C24.3205 22.6876 24.6226 22.5625 24.9375 22.5625Z" fill="#F9F9F9"/>
</svg>
