<svg width="38" height="38" viewBox="0 0 38 38" fill="none" xmlns="http://www.w3.org/2000/svg">
<g clip-path="url(#clip0_4949_17266)">
<path d="M19 0L23.75 7.125H21.375V11.875H16.625V7.125H14.25L19 0ZM35.625 16.625V35.625H2.375V16.625H35.625ZM38 14.25H0V38H38V14.25Z" fill="#F9F9F9"/>
<path d="M19 19C19.9357 19 20.8622 19.1843 21.7266 19.5424C22.5911 19.9004 23.3765 20.4252 24.0381 21.0869C24.6998 21.7485 25.2246 22.5339 25.5826 23.3984C25.9407 24.2628 26.125 25.1893 26.125 26.125C26.125 27.0607 25.9407 27.9872 25.5826 28.8516C25.2246 29.7161 24.6998 30.5015 24.0381 31.1631C23.3765 31.8248 22.5911 32.3496 21.7266 32.7076C20.8622 33.0657 19.9357 33.25 19 33.25H30.875V30.875H33.25V21.375H30.875V19H19ZM11.875 26.125C11.875 24.2353 12.6257 22.4231 13.9619 21.0869C15.2981 19.7507 17.1103 19 19 19H7.125V21.375H4.75V30.875H7.125V33.25H19C17.1103 33.25 15.2981 32.4993 13.9619 31.1631C12.6257 29.8269 11.875 28.0147 11.875 26.125Z" fill="#F9F9F9"/>
</g>
<defs>
<clipPath id="clip0_4949_17266">
<rect width="38" height="38" fill="white"/>
</clipPath>
</defs>
</svg>
