<svg width="38" height="38" viewBox="0 0 38 38" fill="none" xmlns="http://www.w3.org/2000/svg">
<path d="M32.2124 18.1364C32.2694 18.5905 32.2998 19.0731 32.2998 19.5861C32.2998 22.5026 31.4163 24.4634 30.5708 25.6813C30.2368 26.1648 29.8479 26.6079 29.4118 27.0018C29.2693 27.1294 29.1196 27.2487 28.9634 27.359L28.9463 27.3704C28.8097 27.4558 28.697 27.5746 28.6189 27.7155C28.5408 27.8564 28.4998 28.0149 28.4998 28.176V31.3509C28.4998 31.6029 28.3997 31.8445 28.2216 32.0227C28.0434 32.2008 27.8018 32.3009 27.5498 32.3009H24.9202C24.8618 32.3009 24.8057 32.2777 24.7644 32.2364C24.723 32.195 24.6998 32.139 24.6998 32.0805C24.6998 30.9082 23.7498 29.9582 22.5794 29.9582H19.2202C18.0498 29.9582 17.0998 30.9082 17.0998 32.0805C17.0998 32.139 17.0766 32.195 17.0353 32.2364C16.9939 32.2777 16.9379 32.3009 16.8794 32.3009H14.2498C13.9978 32.3009 13.7562 32.2008 13.5781 32.0227C13.3999 31.8445 13.2998 31.6029 13.2998 31.3509V29.7359C13.2993 29.5369 13.2362 29.3431 13.1197 29.1819C13.0031 29.0207 12.8388 28.9001 12.65 28.8372L12.574 28.8011C12.4231 28.727 12.2772 28.6432 12.137 28.5503C11.719 28.2805 11.0597 27.7789 10.1762 26.884C9.37929 26.0637 8.7375 25.1058 8.28191 24.0568C7.93231 23.255 7.20081 22.5501 6.22231 22.3848C6.07665 22.3602 5.94436 22.2849 5.84877 22.1723C5.75318 22.0597 5.70042 21.9169 5.6998 21.7692V18.9059C5.6998 18.7756 5.746 18.6495 5.83018 18.55C5.91436 18.4505 6.03108 18.3841 6.15961 18.3625C7.20461 18.1858 7.94561 17.3859 8.23441 16.5043C8.48141 15.7481 8.926 14.7563 9.66321 14.0096C10.2849 13.3897 10.9804 12.8486 11.7342 12.3984C12.0362 12.2168 12.3469 12.05 12.6652 11.8987L12.7146 11.8759L12.7241 11.8721C12.8954 11.7987 13.0413 11.6765 13.1437 11.5207C13.246 11.365 13.3003 11.1826 13.2998 10.9962V7.01191C13.7805 7.42991 14.341 7.88211 14.9452 8.28491C15.7698 8.83971 16.7521 9.36031 17.761 9.54841C17.9942 8.91473 18.3003 8.31028 18.673 7.74721C18.5571 7.73491 18.4412 7.72288 18.3253 7.71111C17.6508 7.64271 16.8395 7.26841 16.0016 6.70791C15.2472 6.18913 14.5385 5.60688 13.8831 4.96751C13.678 4.77186 13.4206 4.6399 13.1421 4.58763C12.8635 4.53536 12.5757 4.56502 12.3137 4.67301C12.0448 4.77859 11.8138 4.9626 11.6509 5.20113C11.4879 5.43967 11.4004 5.72171 11.3998 6.01061V10.4072C10.2645 11.0074 9.22362 11.7711 8.31041 12.6739C7.27871 13.7189 6.7182 15.0299 6.42941 15.9134C6.31541 16.2516 6.0684 16.4511 5.8442 16.4891C5.27305 16.5852 4.75436 16.8804 4.38013 17.3225C4.00591 17.7645 3.80031 18.3248 3.7998 18.904V21.7673C3.79951 22.3646 4.01079 22.9427 4.39617 23.399C4.78154 23.8553 5.3161 24.1604 5.905 24.2601C6.1425 24.2981 6.399 24.4919 6.5396 24.8168C7.08871 26.0794 7.86253 27.2317 8.82341 28.2178C9.79051 29.1982 10.5543 29.7891 11.1015 30.1444C11.2098 30.2147 11.3105 30.2755 11.3998 30.3287V31.3509C11.3998 31.7252 11.4735 32.0958 11.6167 32.4416C11.76 32.7873 11.9699 33.1015 12.2345 33.3662C12.4992 33.6308 12.8134 33.8407 13.1592 33.984C13.5049 34.1272 13.8755 34.2009 14.2498 34.2009H16.8794C18.0498 34.2009 18.9998 33.2509 18.9998 32.0805C18.9998 31.957 19.0986 31.8582 19.2202 31.8582H22.5794C22.701 31.8582 22.7998 31.957 22.7998 32.0805C22.7998 33.2509 23.7498 34.2009 24.9202 34.2009H27.5498C28.3057 34.2009 29.0306 33.9006 29.5651 33.3662C30.0995 32.8317 30.3998 32.1068 30.3998 31.3509V28.6548C31.0595 28.107 31.6412 27.4716 32.1288 26.7662C33.1833 25.2519 34.1998 22.9168 34.1998 19.5861C34.1998 18.2067 34.0079 16.9717 33.6431 15.8678C33.2877 16.6945 32.8042 17.4601 32.2105 18.1364M31.9217 9.94171C32.492 11.3195 32.5827 12.849 32.1792 14.2845C31.7757 15.72 30.9014 16.9782 29.6968 17.8571C28.8798 18.4499 27.8025 18.4081 26.8715 18.0224L21.0955 15.6303C20.1645 15.2446 19.3722 14.5131 19.2145 13.5175C18.9686 11.913 19.3181 10.274 20.1971 8.90929C21.0761 7.54463 22.4239 6.54859 23.9864 6.10889C25.549 5.66919 27.2184 5.81619 28.6801 6.52219C30.1418 7.2282 31.2947 8.44444 31.9217 9.94171ZM28.5777 16.3219C29.2603 15.8254 29.7983 15.1559 30.1363 14.3824C30.4743 13.6089 30.6 12.7593 30.5006 11.921C30.4011 11.0828 30.0801 10.2862 29.5705 9.6132C29.0609 8.94023 28.3812 8.41521 27.6014 8.09218C26.8215 7.76914 25.9696 7.65977 25.1335 7.77531C24.2973 7.89085 23.507 8.22714 22.8439 8.74955C22.1809 9.27196 21.669 9.96163 21.3611 10.7476C21.0531 11.5335 20.9601 12.3873 21.0917 13.2211C21.1139 13.3289 21.169 13.4271 21.2494 13.5023C21.371 13.6315 21.5648 13.7683 21.8232 13.8747L27.5992 16.2687C27.8104 16.3599 28.038 16.4071 28.268 16.4074C28.3782 16.4118 28.4852 16.3819 28.5777 16.3219ZM12.8248 18.0509C13.2027 18.0509 13.5652 17.9008 13.8324 17.6335C14.0997 17.3663 14.2498 17.0038 14.2498 16.6259C14.2498 16.248 14.0997 15.8855 13.8324 15.6183C13.5652 15.351 13.2027 15.2009 12.8248 15.2009C12.4469 15.2009 12.0844 15.351 11.8172 15.6183C11.5499 15.8855 11.3998 16.248 11.3998 16.6259C11.3998 17.0038 11.5499 17.3663 11.8172 17.6335C12.0844 17.9008 12.4469 18.0509 12.8248 18.0509Z" fill="#F9F9F9"/>
</svg>
