<svg width="38" height="38" viewBox="0 0 38 38" fill="none" xmlns="http://www.w3.org/2000/svg">
<path d="M19 3.85938C16.0055 3.85937 13.0782 4.74736 10.5883 6.41103C8.09846 8.0747 6.15785 10.4393 5.01189 13.2059C3.86593 15.9725 3.5661 19.0168 4.1503 21.9538C4.73451 24.8908 6.17651 27.5886 8.29397 29.706C10.4114 31.8235 13.1092 33.2655 16.0462 33.8497C18.9832 34.4339 22.0275 34.1341 24.7941 32.9881C27.5607 31.8422 29.9253 29.9015 31.589 27.4117C33.2527 24.9218 34.1406 21.9945 34.1406 19C34.1359 14.9859 32.5392 11.1376 29.7008 8.29917C26.8624 5.46077 23.0141 3.86409 19 3.85938ZM19 32.3594C16.3578 32.3594 13.7749 31.5759 11.5779 30.1079C9.381 28.64 7.66869 26.5535 6.65755 24.1124C5.64641 21.6713 5.38185 18.9852 5.89733 16.3937C6.4128 13.8023 7.68516 11.4218 9.5535 9.5535C11.4218 7.68515 13.8023 6.4128 16.3937 5.89732C18.9852 5.38185 21.6713 5.64641 24.1124 6.65755C26.5535 7.66869 28.64 9.38099 30.1079 11.5779C31.5759 13.7749 32.3594 16.3578 32.3594 19C32.3555 22.5419 30.9467 25.9376 28.4422 28.4422C25.9377 30.9467 22.5419 32.3554 19 32.3594ZM12.1719 16.0312C12.1719 15.7377 12.2589 15.4507 12.422 15.2066C12.5851 14.9625 12.817 14.7722 13.0882 14.6599C13.3594 14.5475 13.6579 14.5181 13.9458 14.5754C14.2338 14.6327 14.4983 14.774 14.7059 14.9816C14.9135 15.1892 15.0548 15.4537 15.1121 15.7417C15.1694 16.0296 15.14 16.3281 15.0276 16.5993C14.9153 16.8705 14.725 17.1024 14.4809 17.2655C14.2368 17.4286 13.9498 17.5156 13.6563 17.5156C13.2626 17.5156 12.885 17.3592 12.6066 17.0809C12.3283 16.8025 12.1719 16.4249 12.1719 16.0312ZM27.0156 16.0312C27.0156 16.2675 26.9218 16.494 26.7548 16.661C26.5877 16.828 26.3612 16.9219 26.125 16.9219H22.5625C22.3263 16.9219 22.0998 16.828 21.9327 16.661C21.7657 16.494 21.6719 16.2675 21.6719 16.0312C21.6719 15.795 21.7657 15.5685 21.9327 15.4015C22.0998 15.2345 22.3263 15.1406 22.5625 15.1406H26.125C26.3612 15.1406 26.5877 15.2345 26.7548 15.4015C26.9218 15.5685 27.0156 15.795 27.0156 16.0312ZM25.7079 23.0078C24.2354 25.555 21.7906 27.0156 19 27.0156C16.2094 27.0156 13.7646 25.555 12.2921 23.0078C12.1856 22.8043 12.1619 22.5675 12.2259 22.3468C12.2899 22.1262 12.4367 21.9389 12.6356 21.8239C12.8345 21.709 13.0701 21.6753 13.2932 21.7299C13.5163 21.7846 13.7097 21.9233 13.8329 22.1172C14.9966 24.127 16.8313 25.2344 19 25.2344C21.1687 25.2344 23.0078 24.127 24.1671 22.1172C24.2228 22.0108 24.2994 21.9167 24.3924 21.8406C24.4854 21.7646 24.5928 21.7081 24.7081 21.6747C24.8235 21.6412 24.9444 21.6314 25.0637 21.6459C25.1829 21.6604 25.298 21.6988 25.402 21.7589C25.506 21.8191 25.5967 21.8996 25.6688 21.9957C25.7409 22.0918 25.7928 22.2015 25.8213 22.3181C25.8499 22.4348 25.8546 22.556 25.8351 22.6746C25.8156 22.7931 25.7723 22.9064 25.7079 23.0078Z" fill="#F9F9F9"/>
</svg>
