<svg width="38" height="38" viewBox="0 0 38 38" fill="none" xmlns="http://www.w3.org/2000/svg">
<path d="M31.5464 16.4394C31.6663 16.15 31.6976 15.8315 31.6365 15.5243C31.5753 15.2171 31.4244 14.935 31.2029 14.7135L23.2862 6.79688L21.0474 9.03571L26.2613 14.2496H6.33344V17.4163H30.0834C30.3966 17.4164 30.7027 17.3236 30.9631 17.1497C31.2235 16.9758 31.4265 16.7286 31.5464 16.4394ZM6.45377 21.5599C6.3339 21.8493 6.30257 22.1677 6.36373 22.4749C6.42489 22.7821 6.57579 23.0643 6.79735 23.2857L14.714 31.2024L16.9529 28.9635L11.7389 23.7496H31.6668V20.583H7.91677C7.60359 20.5827 7.29738 20.6754 7.03693 20.8493C6.77648 21.0232 6.57352 21.2705 6.45377 21.5599Z" fill="#FF9227"/>
</svg>
